<svg xmlns="http://www.w3.org/2000/svg" viewBox="0 0 100 100">
  <defs>
    <style>.v-mark { fill: #2e3192; fill-rule: evenodd; }</style>
  </defs>
  <g transform="translate(4,4) scale(0.363)">
    <path class="v-mark" d="M153.8,0.23l-85.68,0.36a21.54,21.54,0,0,0-15.86,7.26L10.75,60.22c-1.63,1.86-3.52-.77-2.27-2.73,9.62-10.89,4.16-22.43-8-23.76H-26c6.22-10.58.53-21-10.86-13.9-1.17.55-2.82-1.33-3.34-2.61-1.89-11-6.6-13.7-11.81-4.28-.87.65-2.23.24-2.27-1.42-1.13-8.2-5.25.18-6.8,9.26-12.8-7.81-24.25,2.13-17.06,13.18l-12.54.5c-11.26,1.27-10.06,21.26,7.88,27.44l62.06,0,17.88,25.57c11.78,16.57,23.66,16.39,35,2.47l43.31-58.44c1.93-2.28,4.76-3.5,8.59-3.56h59.54l2.84-7.09-69.78.08c-5.29.31-9.7,3.53-13.24,8.19L20.29,86.71c-6.56,8.59-12.49,9.68-20.88-1.19l-20-29.1c-2.13-2.87-5.75-4.29-10.74-4.39H-89.84c-7.3-1.39-7.17-14.72,2-14.61H-4.41c11.42.34,11.08,13,2,15.44l11.1,17.58,46.65-58.44c3.36-4.15,8-6.3,13.72-6.65h82.33Z" transform="translate(98.07,0)"/>
    <path class="v-mark" d="M149.56,10.56H70.45c-4.75.16-9.15,2.77-13.19,8.08l-46,59c-2.27,2.24-4.51,2.42-6.93-.58L-.41,53.9q-3.91-6,4.59-7c4.24-.83,5-4.24-2.62-4.33H-76.9c-5.31.12-5.13,4.62.18,4.51H-16.6c3.65-.05,7.66,3,12.11,9.74L3.87,83.25c3.65,4.62,7.12,4.23,10.45.3L62.76,21.84c3.4-4.11,6.28-6.13,12.41-6.06h72.38Z" transform="translate(98.07,0)"/>
  </g>
</svg>
