<svg id="Layer_1" data-name="Layer 1" xmlns="http://www.w3.org/2000/svg" viewBox="0 0 795.66 101.17"><defs><style>.cls-1,.cls-3{fill:#2e3192;}.cls-1{fill-rule:evenodd;}.cls-2,.cls-4,.cls-5{fill:none;stroke-miterlimit:22.93;}.cls-2{stroke:#231f20;}.cls-2,.cls-4{stroke-width:0.22px;}.cls-4,.cls-5{stroke:#fff;}.cls-5{stroke-width:1px;}</style></defs><title>Untitled-2</title><path class="cls-1" d="M-70.32,392.55c3.31,0,6,2,6,4.54s-2.68,4.54-6,4.54-6-2-6-4.54S-73.63,392.55-70.32,392.55Zm39-1.1A4.37,4.37,0,0,1-27,395.94a4.37,4.37,0,0,1-4.24,4.48,4.37,4.37,0,0,1-4.24-4.48A4.37,4.37,0,0,1-31.27,391.46Zm-10.59.45a3.6,3.6,0,0,1,3.61,3.59,3.6,3.6,0,0,1-3.61,3.59,3.6,3.6,0,0,1-3.61-3.59A3.6,3.6,0,0,1-41.86,391.9Zm-4.47-9.8c1.33,0,2.42,1.45,2.42,3.24s-1.08,3.24-2.42,3.24-2.42-1.45-2.42-3.24S-47.67,382.1-46.33,382.1Zm-8.08,6.47c1.58,0,2.86,2.63,2.86,5.88s-1.28,5.88-2.86,5.88-2.86-2.63-2.86-5.88S-56,388.57-54.42,388.57ZM153.8,370.17l-85.68.36a21.54,21.54,0,0,0-15.86,7.26L10.75,430.16c-1.63,1.86-3.52-.77-2.27-2.73,9.62-10.89,4.16-22.43-8-23.76H-26c6.22-10.58.53-21-10.86-13.9-1.17.55-2.82-1.33-3.34-2.61-1.89-11-6.6-13.7-11.81-4.28-0.87.65-2.23,0.24-2.27-1.42-1.13-8.2-5.25.18-6.8,9.26-12.8-7.81-24.25,2.13-17.06,13.18l-12.54.5c-11.26,1.27-10.06,21.26,7.88,27.44l62.06,0,17.88,25.57c11.78,16.57,23.66,16.39,35,2.47l43.31-58.44c1.93-2.28,4.76-3.5,8.59-3.56h59.54l2.84-7.09-69.78.08c-5.29.31-9.7,3.53-13.24,8.19L20.29,456.65c-6.56,8.59-12.49,9.68-20.88-1.19l-20-29.1c-2.13-2.87-5.75-4.29-10.74-4.39H-89.84c-7.3-1.39-7.17-14.72,2-14.61H-4.41c11.42,0.34,11.08,13,2,15.44l11.1,17.58,46.65-58.44c3.36-4.15,8-6.3,13.72-6.65h82.33Z" transform="translate(98.07 -369.94)"/><path class="cls-2" d="M-70.32,392.55c3.31,0,6,2,6,4.54s-2.68,4.54-6,4.54-6-2-6-4.54S-73.63,392.55-70.32,392.55Zm39-1.1A4.37,4.37,0,0,1-27,395.94a4.37,4.37,0,0,1-4.24,4.48,4.37,4.37,0,0,1-4.24-4.48A4.37,4.37,0,0,1-31.27,391.46Zm-10.59.45a3.6,3.6,0,0,1,3.61,3.59,3.6,3.6,0,0,1-3.61,3.59,3.6,3.6,0,0,1-3.61-3.59A3.6,3.6,0,0,1-41.86,391.9Zm-4.47-9.8c1.33,0,2.42,1.45,2.42,3.24s-1.08,3.24-2.42,3.24-2.42-1.45-2.42-3.24S-47.67,382.1-46.33,382.1Zm-8.08,6.47c1.58,0,2.86,2.63,2.86,5.88s-1.28,5.88-2.86,5.88-2.86-2.63-2.86-5.88S-56,388.57-54.42,388.57ZM153.8,370.17l-85.68.36a21.54,21.54,0,0,0-15.86,7.26L10.75,430.16c-1.63,1.86-3.52-.77-2.27-2.73,9.62-10.89,4.16-22.43-8-23.76H-26c6.22-10.58.53-21-10.86-13.9-1.17.55-2.82-1.33-3.34-2.61-1.89-11-6.6-13.7-11.81-4.28-0.87.65-2.23,0.24-2.27-1.42-1.13-8.2-5.25.18-6.8,9.26-12.8-7.81-24.25,2.13-17.06,13.18l-12.54.5c-11.26,1.27-10.06,21.26,7.88,27.44l62.06,0,17.88,25.57c11.78,16.57,23.66,16.39,35,2.47l43.31-58.44c1.93-2.28,4.76-3.5,8.59-3.56h59.54l2.84-7.09-69.78.08c-5.29.31-9.7,3.53-13.24,8.19L20.29,456.65c-6.56,8.59-12.49,9.68-20.88-1.19l-20-29.1c-2.13-2.87-5.75-4.29-10.74-4.39H-89.84c-7.3-1.39-7.17-14.72,2-14.61H-4.41c11.42,0.34,11.08,13,2,15.44l11.1,17.58,46.65-58.44c3.36-4.15,8-6.3,13.72-6.65h82.33Z" transform="translate(98.07 -369.94)"/><path class="cls-1" d="M149.56,380.5H70.45c-4.75.16-9.15,2.77-13.19,8.08l-46,59C9,449.82,6.71,450,4.29,447l-14.74-23q-3.91-6,4.59-7c4.24-.83,5-4.24-2.62-4.33h-76.9c-5.31.12-5.13,4.62,0.18,4.51h60.14c3.65-.05,7.66,3,12.11,9.74L3.87,453.19c3.65,4.62,7.12,4.23,10.45.3l48.44-61.71c3.4-4.11,6.28-6.13,12.41-6.06h72.38Z" transform="translate(98.07 -369.94)"/><path class="cls-2" d="M149.56,380.5H70.45c-4.75.16-9.15,2.77-13.19,8.08l-46,59C9,449.82,6.71,450,4.29,447l-14.74-23q-3.91-6,4.59-7c4.24-.83,5-4.24-2.62-4.33h-76.9c-5.31.12-5.13,4.62,0.18,4.51h60.14c3.65-.05,7.66,3,12.11,9.74L3.87,453.19c3.65,4.62,7.12,4.23,10.45.3l48.44-61.71c3.4-4.11,6.28-6.13,12.41-6.06h72.38Z" transform="translate(98.07 -369.94)"/><polygon class="cls-1" points="262.91 0 268.69 0 266.18 5.74 260.41 5.74 262.91 0"/><polygon class="cls-1" points="258.19 10.23 264.37 10.23 261.69 16.48 255.51 16.48 258.19 10.23"/><polygon class="cls-1" points="253.86 20.88 260.57 20.88 257.52 27.87 250.81 27.87 253.86 20.88"/><path class="cls-3" d="M697.47,471H683.14v-7a1.56,1.56,0,0,0-1.82-1.69H659.14v-7.56a3.56,3.56,0,0,0,1.61-3.13V430.28a3.14,3.14,0,0,0-1.61-3v-7.56h17.45v7.56q-1.5.85-1.5,3.58v19.34a10,10,0,0,0,.32,3,3.32,3.32,0,0,0,1.18,1.57h2.31a3.8,3.8,0,0,0,1.61-3.38V430.88q0-2.83-1.61-3.58v-7.56h17.66v7.56a2.43,2.43,0,0,0-1.29,1.17,9.47,9.47,0,0,0-.27,2.86v18.49a15.6,15.6,0,0,0,.24,3.53,2.72,2.72,0,0,0,1.32,1.44h0.91V471ZM642,436.15v-3q0-4.48-4.35-4.47h-1v12.43h1.56a3.87,3.87,0,0,0,2.93-.94Q642,439.18,642,436.15Zm14.34,1.74q0,12.23-14.17,12.23h-5.53a18.31,18.31,0,0,0,.16,3.11,3,3,0,0,0,1.4,1.57v7.56h-17.5v-7.56q1.45-.84,1.56-3.43V431.18q0-3-1.56-3.88v-7.56h20.24a24.72,24.72,0,0,1,9.34,1.39,8.64,8.64,0,0,1,4.67,4.42,20.68,20.68,0,0,1,1.4,8.45v3.88Zm-38.87,24.46H582.95v-7.56q1.45-.8,1.56-3.63V430.68a3.7,3.7,0,0,0-1.56-3.38v-7.56h34.52v14.37H604.26v-1.39q0-2.54-1-3.26t-4.19-.72v7.61h9v8.35h-9v8.6q3.54-.15,4.32-0.67t0.83-3.75v-2h13.21v15.46Zm-38.87,0H561.69v-7.56a3.11,3.11,0,0,0,1.23-1.37,7,7,0,0,0,.32-2.51V439.13h-0.11L557,462.35h-4.51l-6.6-23.22h-0.11l-0.11,12.23a3.5,3.5,0,0,0,1.72,3.43v7.56H533.18v-7.56a3.38,3.38,0,0,0,1.45-3.13V430.48q0-2.39-1.45-3.18v-7.56h18l4.73,17.45h0.11l4.89-17.45H578.6v7.56a2.75,2.75,0,0,0-1.18,1,4.8,4.8,0,0,0-.43,2.16v20.24a8.81,8.81,0,0,0,.27,2.63,3.14,3.14,0,0,0,1.34,1.44v7.56ZM514,450.72V431.48q0-3.33-2.74-3.38t-2.79,3.38v19.24q0,3.28,2.79,3.28T514,450.72Zm14.39-.5q0,6.71-4,9.87t-13.13,3.16q-8.8,0-13-3.11T494,450.22V431.87q0-6.91,4.13-10t13-3.06a31.94,31.94,0,0,1,9.69,1.22,10.07,10.07,0,0,1,5.58,4.1,14.1,14.1,0,0,1,1.85,7.71v18.35Zm-36.94,12.13H474.92v-5.22a16.29,16.29,0,0,0-.64-4.62,18.84,18.84,0,0,0-1.56-3.83A21.93,21.93,0,0,0,471,446q-0.81-1-1.72-2.19h-0.11v6.41q0,3.93,1.56,4.57v7.56h-17.5v-7.56a3.6,3.6,0,0,0,1.24-1,7,7,0,0,0,.32-2.56v-20q0-3-1.56-4v-7.56h17.5v7.56a2.47,2.47,0,0,0-1.23,1.32,17.45,17.45,0,0,0-.32,3.26v5q1.61-2.24,3.65-5.34a10.86,10.86,0,0,0,2.09-5.49v-6.31h15.62v7.56a9.63,9.63,0,0,0-1.61.72,22.86,22.86,0,0,0-1.61,2.11l-5.91,8.8,6.71,12.33,0.83,1.29a7.48,7.48,0,0,0,.78,1.07,4.06,4.06,0,0,0,.51.45q0.24,0.17,1.15.72v7.56Zm-60.3,0H413.45v-7.51a3.8,3.8,0,0,0,1.61-3.38V430.93q0-2.83-1.61-3.58h-2.31q-1.5.85-1.5,3.58v19.34a10.76,10.76,0,0,0,.29,3.08,3.11,3.11,0,0,0,1.21,1.49v7.51H393.69v-7.51a3.56,3.56,0,0,0,1.61-3.13V430.33a3.14,3.14,0,0,0-1.61-3v-7.61h37.42v7.61a2.43,2.43,0,0,0-1.26,1.32,8.81,8.81,0,0,0-.3,2.71v18.5a14.75,14.75,0,0,0,.27,3.33,2.62,2.62,0,0,0,1.29,1.64v7.51Zm-55.62-11.63V431.48q0-3.33-2.74-3.38T370,431.48v19.24q0,3.28,2.79,3.28T375.49,450.72Zm14.39-.5q0,6.71-4,9.87t-13.13,3.16q-8.81,0-13-3.11t-4.21-9.92V431.87q0-6.91,4.13-10t13-3.06a31.94,31.94,0,0,1,9.69,1.22,10.08,10.08,0,0,1,5.58,4.1,14.1,14.1,0,0,1,1.85,7.71v18.35Zm-53.1.5V431.48q0-3.33-2.74-3.38t-2.79,3.38v19.24q0,3.28,2.79,3.28T336.78,450.72Zm14.39-.5q0,6.71-4,9.87T334,463.24q-8.8,0-13-3.11t-4.21-9.92V431.87q0-6.91,4.13-10t13-3.06a31.94,31.94,0,0,1,9.69,1.22,10.07,10.07,0,0,1,5.58,4.1,14.1,14.1,0,0,1,1.85,7.71v18.35Zm-36.94,12.13H297.74v-5.22a16.29,16.29,0,0,0-.64-4.62,18.79,18.79,0,0,0-1.56-3.83,21.86,21.86,0,0,0-1.72-2.68q-0.8-1-1.72-2.19H292v6.41q0,3.93,1.56,4.57v7.56h-17.5v-7.56a3.59,3.59,0,0,0,1.23-1,7,7,0,0,0,.32-2.56v-20q0-3-1.56-4v-7.56h17.5v7.56a2.47,2.47,0,0,0-1.23,1.32,17.38,17.38,0,0,0-.32,3.26v5q1.61-2.24,3.65-5.34a10.86,10.86,0,0,0,2.09-5.49v-6.31h15.62v7.56a9.6,9.6,0,0,0-1.61.72,22.83,22.83,0,0,0-1.61,2.11l-5.91,8.8L311,451.26l0.83,1.29a7.44,7.44,0,0,0,.78,1.07,4.1,4.1,0,0,0,.51.45q0.24,0.17,1.15.72v7.56Zm-55.57-26.2v-3q0-4.48-4.35-4.47h-1v12.43h1.56a3.87,3.87,0,0,0,2.93-.94Q258.66,439.18,258.66,436.15ZM273,437.89q0,12.23-14.17,12.23h-5.53a18.18,18.18,0,0,0,.16,3.11,3,3,0,0,0,1.4,1.57v7.56h-17.5v-7.56q1.45-.84,1.56-3.43V431.18q0-3-1.56-3.88v-7.56h20.24a24.72,24.72,0,0,1,9.34,1.39,8.64,8.64,0,0,1,4.67,4.42A20.68,20.68,0,0,1,273,434v3.88Zm-56.21,5-2.42-12.63-0.11,0-2.2,12.68h4.73Zm17.93,19.44H216.56v-7.56a2.22,2.22,0,0,0,1.56-2.24,5.71,5.71,0,0,0-.11-1.39h-6.93a9.51,9.51,0,0,1-.27,1.39,2.26,2.26,0,0,0,2,2.24v7.56H197v-7.56q1.4-1,2.09-4.87l6.07-30.18h20.46l6,27.64a56,56,0,0,0,1.45,5.69,3.13,3.13,0,0,0,1.72,1.72v7.56Zm-38.71,0H179.52v-5.22a16.29,16.29,0,0,0-.64-4.62,18.79,18.79,0,0,0-1.56-3.83A21.79,21.79,0,0,0,175.6,446q-0.8-1-1.72-2.19h-0.11v6.41q0,3.93,1.56,4.57v7.56h-17.5v-7.56a3.6,3.6,0,0,0,1.23-1,7,7,0,0,0,.32-2.56v-20q0-3-1.56-4v-7.56h17.5v7.56a2.47,2.47,0,0,0-1.24,1.32,17.42,17.42,0,0,0-.32,3.26v5q1.61-2.24,3.65-5.34a10.85,10.85,0,0,0,2.09-5.49v-6.31h15.62v7.56a9.58,9.58,0,0,0-1.61.72,22.77,22.77,0,0,0-1.61,2.11l-5.91,8.8,6.71,12.33,0.83,1.29a7.46,7.46,0,0,0,.78,1.07,4.14,4.14,0,0,0,.51.45q0.24,0.17,1.15.72v7.56Zm-57-11.63V431.48q0-3.33-2.74-3.38t-2.79,3.38v19.24q0,3.28,2.79,3.28T139,450.72Zm14.39-.5q0,6.71-4,9.87t-13.13,3.16q-8.81,0-13-3.11t-4.21-9.92V431.87q0-6.91,4.13-10t13-3.06a31.94,31.94,0,0,1,9.69,1.22,10.07,10.07,0,0,1,5.58,4.1,14.11,14.11,0,0,1,1.85,7.71v18.35ZM100.21,448q-0.11-3.78-4.83-3.78H94.25v9.3h1.56Q100.21,453.5,100.21,448ZM100,431.57q-0.27-3-4.62-3H94.25v7.71h1.88Q100.27,436.25,100,431.57Zm15,18.54a13.58,13.58,0,0,1-1.72,6.61,10,10,0,0,1-4.83,4.13,21.49,21.49,0,0,1-8.05,1.49H78.09v-7.56q1.77-.7,1.77-3.33V431.67a11.42,11.42,0,0,0-.3-3.33,2,2,0,0,0-1.48-1v-7.56h21q8.05,0,11.62,2.49t3.57,8.55q0,7.46-7.25,9.25v0.1a8.59,8.59,0,0,1,5.69,2.83Q115,445.45,115,450.12Z" transform="translate(98.07 -369.94)"/><path class="cls-4" d="M697.47,471H683.14v-7a1.56,1.56,0,0,0-1.82-1.69H659.14v-7.56a3.56,3.56,0,0,0,1.61-3.13V430.28a3.14,3.14,0,0,0-1.61-3v-7.56h17.45v7.56q-1.5.85-1.5,3.58v19.34a10,10,0,0,0,.32,3,3.32,3.32,0,0,0,1.18,1.57h2.31a3.8,3.8,0,0,0,1.61-3.38V430.88q0-2.83-1.61-3.58v-7.56h17.66v7.56a2.43,2.43,0,0,0-1.29,1.17,9.47,9.47,0,0,0-.27,2.86v18.49a15.6,15.6,0,0,0,.24,3.53,2.72,2.72,0,0,0,1.32,1.44h0.91V471ZM642,436.15v-3q0-4.48-4.35-4.47h-1v12.43h1.56a3.87,3.87,0,0,0,2.93-.94Q642,439.18,642,436.15Zm14.34,1.74q0,12.23-14.17,12.23h-5.53a18.31,18.31,0,0,0,.16,3.11,3,3,0,0,0,1.4,1.57v7.56h-17.5v-7.56q1.45-.84,1.56-3.43V431.18q0-3-1.56-3.88v-7.56h20.24a24.72,24.72,0,0,1,9.34,1.39,8.64,8.64,0,0,1,4.67,4.42,20.68,20.68,0,0,1,1.4,8.45v3.88Zm-38.87,24.46H582.95v-7.56q1.45-.8,1.56-3.63V430.68a3.7,3.7,0,0,0-1.56-3.38v-7.56h34.52v14.37H604.26v-1.39q0-2.54-1-3.26t-4.19-.72v7.61h9v8.35h-9v8.6q3.54-.15,4.32-0.67t0.83-3.75v-2h13.21v15.46Zm-38.87,0H561.69v-7.56a3.11,3.11,0,0,0,1.23-1.37,7,7,0,0,0,.32-2.51V439.13h-0.11L557,462.35h-4.51l-6.6-23.22h-0.11l-0.11,12.23a3.5,3.5,0,0,0,1.72,3.43v7.56H533.18v-7.56a3.38,3.38,0,0,0,1.45-3.13V430.48q0-2.39-1.45-3.18v-7.56h18l4.73,17.45h0.11l4.89-17.45H578.6v7.56a2.75,2.75,0,0,0-1.18,1,4.8,4.8,0,0,0-.43,2.16v20.24a8.81,8.81,0,0,0,.27,2.63,3.14,3.14,0,0,0,1.34,1.44v7.56ZM514,450.72V431.48q0-3.33-2.74-3.38t-2.79,3.38v19.24q0,3.28,2.79,3.28T514,450.72Zm14.39-.5q0,6.71-4,9.87t-13.13,3.16q-8.8,0-13-3.11T494,450.22V431.87q0-6.91,4.13-10t13-3.06a31.94,31.94,0,0,1,9.69,1.22,10.07,10.07,0,0,1,5.58,4.1,14.1,14.1,0,0,1,1.85,7.71v18.35Zm-36.94,12.13H474.92v-5.22a16.29,16.29,0,0,0-.64-4.62,18.84,18.84,0,0,0-1.56-3.83A21.93,21.93,0,0,0,471,446q-0.81-1-1.72-2.19h-0.11v6.41q0,3.93,1.56,4.57v7.56h-17.5v-7.56a3.6,3.6,0,0,0,1.24-1,7,7,0,0,0,.32-2.56v-20q0-3-1.56-4v-7.56h17.5v7.56a2.47,2.47,0,0,0-1.23,1.32,17.45,17.45,0,0,0-.32,3.26v5q1.61-2.24,3.65-5.34a10.86,10.86,0,0,0,2.09-5.49v-6.31h15.62v7.56a9.63,9.63,0,0,0-1.61.72,22.86,22.86,0,0,0-1.61,2.11l-5.91,8.8,6.71,12.33,0.83,1.29a7.48,7.48,0,0,0,.78,1.07,4.06,4.06,0,0,0,.51.45q0.24,0.17,1.15.72v7.56Zm-60.3,0H413.45v-7.51a3.8,3.8,0,0,0,1.61-3.38V430.93q0-2.83-1.61-3.58h-2.31q-1.5.85-1.5,3.58v19.34a10.76,10.76,0,0,0,.29,3.08,3.11,3.11,0,0,0,1.21,1.49v7.51H393.69v-7.51a3.56,3.56,0,0,0,1.61-3.13V430.33a3.14,3.14,0,0,0-1.61-3v-7.61h37.42v7.61a2.43,2.43,0,0,0-1.26,1.32,8.81,8.81,0,0,0-.3,2.71v18.5a14.75,14.75,0,0,0,.27,3.33,2.62,2.62,0,0,0,1.29,1.64v7.51Zm-55.62-11.63V431.48q0-3.33-2.74-3.38T370,431.48v19.24q0,3.28,2.79,3.28T375.49,450.72Zm14.39-.5q0,6.71-4,9.87t-13.13,3.16q-8.81,0-13-3.11t-4.21-9.92V431.87q0-6.91,4.13-10t13-3.06a31.94,31.94,0,0,1,9.69,1.22,10.08,10.08,0,0,1,5.58,4.1,14.1,14.1,0,0,1,1.85,7.71v18.35Zm-53.1.5V431.48q0-3.33-2.74-3.38t-2.79,3.38v19.24q0,3.28,2.79,3.28T336.78,450.72Zm14.39-.5q0,6.71-4,9.87T334,463.24q-8.8,0-13-3.11t-4.21-9.92V431.87q0-6.91,4.13-10t13-3.06a31.94,31.94,0,0,1,9.69,1.22,10.07,10.07,0,0,1,5.58,4.1,14.1,14.1,0,0,1,1.85,7.71v18.35Zm-36.94,12.13H297.74v-5.22a16.29,16.29,0,0,0-.64-4.62,18.79,18.79,0,0,0-1.56-3.83,21.86,21.86,0,0,0-1.72-2.68q-0.8-1-1.72-2.19H292v6.41q0,3.93,1.56,4.57v7.56h-17.5v-7.56a3.59,3.59,0,0,0,1.23-1,7,7,0,0,0,.32-2.56v-20q0-3-1.56-4v-7.56h17.5v7.56a2.47,2.47,0,0,0-1.23,1.32,17.38,17.38,0,0,0-.32,3.26v5q1.61-2.24,3.65-5.34a10.86,10.86,0,0,0,2.09-5.49v-6.31h15.62v7.56a9.6,9.6,0,0,0-1.61.72,22.83,22.83,0,0,0-1.61,2.11l-5.91,8.8L311,451.26l0.83,1.29a7.44,7.44,0,0,0,.78,1.07,4.1,4.1,0,0,0,.51.45q0.24,0.17,1.15.72v7.56Zm-55.57-26.2v-3q0-4.48-4.35-4.47h-1v12.43h1.56a3.87,3.87,0,0,0,2.93-.94Q258.66,439.18,258.66,436.15ZM273,437.89q0,12.23-14.17,12.23h-5.53a18.18,18.18,0,0,0,.16,3.11,3,3,0,0,0,1.4,1.57v7.56h-17.5v-7.56q1.45-.84,1.56-3.43V431.18q0-3-1.56-3.88v-7.56h20.24a24.72,24.72,0,0,1,9.34,1.39,8.64,8.64,0,0,1,4.67,4.42A20.68,20.68,0,0,1,273,434v3.88Zm-56.21,5-2.42-12.63-0.11,0-2.2,12.68h4.73Zm17.93,19.44H216.56v-7.56a2.22,2.22,0,0,0,1.56-2.24,5.71,5.71,0,0,0-.11-1.39h-6.93a9.51,9.51,0,0,1-.27,1.39,2.26,2.26,0,0,0,2,2.24v7.56H197v-7.56q1.4-1,2.09-4.87l6.07-30.18h20.46l6,27.64a56,56,0,0,0,1.45,5.69,3.13,3.13,0,0,0,1.72,1.72v7.56Zm-38.71,0H179.52v-5.22a16.29,16.29,0,0,0-.64-4.62,18.79,18.79,0,0,0-1.56-3.83A21.79,21.79,0,0,0,175.6,446q-0.8-1-1.72-2.19h-0.11v6.41q0,3.93,1.56,4.57v7.56h-17.5v-7.56a3.6,3.6,0,0,0,1.23-1,7,7,0,0,0,.32-2.56v-20q0-3-1.56-4v-7.56h17.5v7.56a2.47,2.47,0,0,0-1.24,1.32,17.42,17.42,0,0,0-.32,3.26v5q1.61-2.24,3.65-5.34a10.85,10.85,0,0,0,2.09-5.49v-6.31h15.62v7.56a9.58,9.58,0,0,0-1.61.72,22.77,22.77,0,0,0-1.61,2.11l-5.91,8.8,6.71,12.33,0.83,1.29a7.46,7.46,0,0,0,.78,1.07,4.14,4.14,0,0,0,.51.45q0.24,0.17,1.15.72v7.56Zm-57-11.63V431.48q0-3.33-2.74-3.38t-2.79,3.38v19.24q0,3.28,2.79,3.28T139,450.72Zm14.39-.5q0,6.71-4,9.87t-13.13,3.16q-8.81,0-13-3.11t-4.21-9.92V431.87q0-6.91,4.13-10t13-3.06a31.94,31.94,0,0,1,9.69,1.22,10.07,10.07,0,0,1,5.58,4.1,14.11,14.11,0,0,1,1.85,7.71v18.35ZM100.21,448q-0.11-3.78-4.83-3.78H94.25v9.3h1.56Q100.21,453.5,100.21,448ZM100,431.57q-0.27-3-4.62-3H94.25v7.71h1.88Q100.27,436.25,100,431.57Zm15,18.54a13.58,13.58,0,0,1-1.72,6.61,10,10,0,0,1-4.83,4.13,21.49,21.49,0,0,1-8.05,1.49H78.09v-7.56q1.77-.7,1.77-3.33V431.67a11.42,11.42,0,0,0-.3-3.33,2,2,0,0,0-1.48-1v-7.56h21q8.05,0,11.62,2.49t3.57,8.55q0,7.46-7.25,9.25v0.1a8.59,8.59,0,0,1,5.69,2.83Q115,445.45,115,450.12Z" transform="translate(98.07 -369.94)"/><path class="cls-3" d="M694.62,469.31H680.29v-7a1.56,1.56,0,0,0-1.83-1.69H656.29V453.1A3.56,3.56,0,0,0,657.9,450V428.59a3.14,3.14,0,0,0-1.61-3v-7.56h17.45v7.56q-1.5.85-1.5,3.58v19.34a10,10,0,0,0,.32,3,3.32,3.32,0,0,0,1.18,1.57H676a3.8,3.8,0,0,0,1.61-3.38V429.19q0-2.83-1.61-3.58v-7.56h17.66v7.56a2.43,2.43,0,0,0-1.29,1.17,9.47,9.47,0,0,0-.27,2.86v18.5a15.58,15.58,0,0,0,.24,3.53,2.72,2.72,0,0,0,1.32,1.44h0.91v16.21Zm-55.46-34.85v-3q0-4.47-4.35-4.47h-1v12.43h1.56a3.87,3.87,0,0,0,2.93-.94Q639.16,437.49,639.16,434.46Zm14.34,1.74q0,12.23-14.17,12.23h-5.53a18.19,18.19,0,0,0,.16,3.11,3,3,0,0,0,1.4,1.57v7.56h-17.5V453.1q1.45-.85,1.56-3.43V429.49q0-3-1.56-3.88v-7.56h20.24a24.71,24.71,0,0,1,9.34,1.39,8.64,8.64,0,0,1,4.67,4.42,20.68,20.68,0,0,1,1.4,8.45v3.88Zm-38.87,24.46H580.1V453.1q1.45-.8,1.56-3.63V429a3.7,3.7,0,0,0-1.56-3.38v-7.56h34.52v14.37H601.41V431q0-2.54-1-3.26t-4.19-.72v7.61h9V443h-9v8.6q3.54-.15,4.32-0.67t0.83-3.75v-2h13.21v15.46Zm-38.87,0H558.84V453.1a3.1,3.1,0,0,0,1.23-1.37,7,7,0,0,0,.32-2.51V437.44h-0.11l-6.17,23.22H549.6L543,437.44h-0.11l-0.11,12.23a3.5,3.5,0,0,0,1.72,3.43v7.56H530.33V453.1a3.38,3.38,0,0,0,1.45-3.13V428.79q0-2.39-1.45-3.18v-7.56h18l4.72,17.45h0.11l4.89-17.45h17.66v7.56a2.76,2.76,0,0,0-1.18,1,4.8,4.8,0,0,0-.43,2.16V449a8.81,8.81,0,0,0,.27,2.63,3.14,3.14,0,0,0,1.34,1.44v7.56ZM511.11,449V429.79q0-3.33-2.74-3.38t-2.79,3.38V449q0,3.28,2.79,3.28T511.11,449Zm14.39-.5q0,6.71-4,9.87t-13.13,3.16q-8.8,0-13-3.11t-4.22-9.92V430.18q0-6.91,4.13-10t13-3.06a31.94,31.94,0,0,1,9.69,1.22,10.07,10.07,0,0,1,5.58,4.1,14.1,14.1,0,0,1,1.85,7.71v18.34Zm-36.94,12.13H472.07v-5.22a16.28,16.28,0,0,0-.64-4.62,18.78,18.78,0,0,0-1.56-3.83,21.89,21.89,0,0,0-1.72-2.68q-0.8-1-1.72-2.19h-0.11v6.41q0,3.93,1.56,4.57v7.56h-17.5V453.1a3.6,3.6,0,0,0,1.23-1,7,7,0,0,0,.32-2.56v-20q0-3-1.56-4v-7.56h17.5v7.56a2.47,2.47,0,0,0-1.23,1.32,17.36,17.36,0,0,0-.32,3.26v5q1.61-2.24,3.65-5.34a10.86,10.86,0,0,0,2.09-5.49v-6.31H487.7v7.56a9.63,9.63,0,0,0-1.61.72,22.65,22.65,0,0,0-1.61,2.11l-5.91,8.8,6.71,12.33,0.83,1.29a7.52,7.52,0,0,0,.78,1.07,4.07,4.07,0,0,0,.51.45q0.24,0.17,1.15.72v7.56Zm-60.29,0H410.6v-7.51a3.8,3.8,0,0,0,1.61-3.38V429.24q0-2.83-1.61-3.58h-2.31q-1.5.85-1.5,3.58v19.34a10.73,10.73,0,0,0,.3,3.08,3.11,3.11,0,0,0,1.21,1.49v7.51H390.84v-7.51a3.56,3.56,0,0,0,1.61-3.13V428.64a3.14,3.14,0,0,0-1.61-3v-7.61h37.42v7.61A2.43,2.43,0,0,0,427,427a8.81,8.81,0,0,0-.3,2.71v18.49a14.78,14.78,0,0,0,.27,3.33,2.61,2.61,0,0,0,1.29,1.64v7.51ZM372.64,449V429.79q0-3.33-2.74-3.38t-2.79,3.38V449q0,3.28,2.79,3.28T372.64,449Zm14.39-.5q0,6.71-4,9.87t-13.13,3.16q-8.8,0-13-3.11t-4.21-9.92V430.18q0-6.91,4.13-10t13-3.06a32,32,0,0,1,9.69,1.22,10.07,10.07,0,0,1,5.58,4.1,14.1,14.1,0,0,1,1.85,7.71v18.34Zm-53.1.5V429.79q0-3.33-2.74-3.38t-2.79,3.38V449q0,3.28,2.79,3.28T333.92,449Zm14.39-.5q0,6.71-4,9.87t-13.13,3.16q-8.81,0-13-3.11T314,448.53V430.18q0-6.91,4.13-10t13-3.06a31.94,31.94,0,0,1,9.69,1.22,10.07,10.07,0,0,1,5.58,4.1,14.1,14.1,0,0,1,1.85,7.71v18.34Zm-36.94,12.13H294.89v-5.22a16.29,16.29,0,0,0-.64-4.62,18.84,18.84,0,0,0-1.56-3.83A21.93,21.93,0,0,0,291,444.3q-0.81-1-1.72-2.19h-0.11v6.41q0,3.93,1.56,4.57v7.56H273.2V453.1a3.61,3.61,0,0,0,1.23-1,7,7,0,0,0,.32-2.56v-20q0-3-1.56-4v-7.56h17.5v7.56a2.47,2.47,0,0,0-1.23,1.32,17.37,17.37,0,0,0-.32,3.26v5q1.61-2.24,3.65-5.34a10.86,10.86,0,0,0,2.09-5.49v-6.31h15.62v7.56a9.66,9.66,0,0,0-1.61.72,22.64,22.64,0,0,0-1.61,2.11l-5.91,8.8,6.71,12.33,0.83,1.29a7.47,7.47,0,0,0,.78,1.07,4,4,0,0,0,.51.45q0.24,0.17,1.15.72v7.56Zm-55.57-26.2v-3q0-4.47-4.35-4.47h-1v12.43H252a3.87,3.87,0,0,0,2.93-.94Q255.81,437.49,255.8,434.46Zm14.34,1.74q0,12.23-14.17,12.23h-5.53a18.19,18.19,0,0,0,.16,3.11,3,3,0,0,0,1.4,1.57v7.56h-17.5V453.1q1.45-.85,1.56-3.43V429.49q0-3-1.56-3.88v-7.56h20.24a24.71,24.71,0,0,1,9.34,1.39,8.64,8.64,0,0,1,4.67,4.42,20.68,20.68,0,0,1,1.4,8.45v3.88Zm-56.21,5-2.42-12.63-0.11,0-2.2,12.68h4.73Zm17.93,19.44H213.71V453.1a2.22,2.22,0,0,0,1.56-2.24,5.71,5.71,0,0,0-.11-1.39h-6.93a9.53,9.53,0,0,1-.27,1.39,2.26,2.26,0,0,0,2,2.24v7.56H194.11V453.1q1.4-1,2.09-4.87l6.07-30.18h20.46l6,27.64a56.35,56.35,0,0,0,1.45,5.69,3.13,3.13,0,0,0,1.72,1.72v7.56Zm-38.71,0H176.66v-5.22a16.29,16.29,0,0,0-.64-4.62,18.76,18.76,0,0,0-1.56-3.83,21.76,21.76,0,0,0-1.72-2.68q-0.8-1-1.72-2.19h-0.11v6.41q0,3.93,1.56,4.57v7.56H155V453.1a3.6,3.6,0,0,0,1.23-1,7,7,0,0,0,.32-2.56v-20q0-3-1.56-4v-7.56h17.5v7.56a2.47,2.47,0,0,0-1.24,1.32,17.3,17.3,0,0,0-.32,3.26v5q1.61-2.24,3.65-5.34a10.85,10.85,0,0,0,2.09-5.49v-6.31h15.62v7.56a9.66,9.66,0,0,0-1.61.72,22.72,22.72,0,0,0-1.61,2.11l-5.91,8.8,6.71,12.33,0.83,1.29a7.48,7.48,0,0,0,.78,1.07,4.07,4.07,0,0,0,.51.45q0.24,0.17,1.15.72v7.56Zm-57-11.63V429.79q0-3.33-2.74-3.38t-2.79,3.38V449q0,3.28,2.79,3.28T136.18,449Zm14.39-.5q0,6.71-4,9.87t-13.13,3.16q-8.81,0-13-3.11t-4.22-9.92V430.18q0-6.91,4.13-10t13-3.06a32,32,0,0,1,9.69,1.22,10.07,10.07,0,0,1,5.58,4.1,14.1,14.1,0,0,1,1.85,7.71v18.34Zm-53.21-2.24q-0.11-3.78-4.83-3.78H91.4v9.3H93Q97.36,451.81,97.36,446.29Zm-0.21-16.41q-0.27-3-4.62-3H91.4v7.71h1.88Q97.42,434.56,97.15,429.89Zm15,18.54a13.57,13.57,0,0,1-1.72,6.61,10,10,0,0,1-4.83,4.13,21.49,21.49,0,0,1-8.05,1.49H75.24V453.1q1.77-.7,1.77-3.33V430a11.43,11.43,0,0,0-.29-3.33,2,2,0,0,0-1.48-1v-7.56h21q8.05,0,11.62,2.49t3.57,8.55q0,7.46-7.25,9.25v0.1a8.59,8.59,0,0,1,5.69,2.83Q112.13,443.76,112.18,448.43Z" transform="translate(98.07 -369.94)"/><path class="cls-5" d="M694.62,469.31H680.29v-7a1.56,1.56,0,0,0-1.83-1.69H656.29V453.1A3.56,3.56,0,0,0,657.9,450V428.59a3.14,3.14,0,0,0-1.61-3v-7.56h17.45v7.56q-1.5.85-1.5,3.58v19.34a10,10,0,0,0,.32,3,3.32,3.32,0,0,0,1.18,1.57H676a3.8,3.8,0,0,0,1.61-3.38V429.19q0-2.83-1.61-3.58v-7.56h17.66v7.56a2.43,2.43,0,0,0-1.29,1.17,9.47,9.47,0,0,0-.27,2.86v18.5a15.58,15.58,0,0,0,.24,3.53,2.72,2.72,0,0,0,1.32,1.44h0.91v16.21Zm-55.46-34.85v-3q0-4.47-4.35-4.47h-1v12.43h1.56a3.87,3.87,0,0,0,2.93-.94Q639.16,437.49,639.16,434.46Zm14.34,1.74q0,12.23-14.17,12.23h-5.53a18.19,18.19,0,0,0,.16,3.11,3,3,0,0,0,1.4,1.57v7.56h-17.5V453.1q1.45-.85,1.56-3.43V429.49q0-3-1.56-3.88v-7.56h20.24a24.71,24.71,0,0,1,9.34,1.39,8.64,8.64,0,0,1,4.67,4.42,20.68,20.68,0,0,1,1.4,8.45v3.88Zm-38.87,24.46H580.1V453.1q1.45-.8,1.56-3.63V429a3.7,3.7,0,0,0-1.56-3.38v-7.56h34.52v14.37H601.41V431q0-2.54-1-3.26t-4.19-.72v7.61h9V443h-9v8.6q3.54-.15,4.32-0.67t0.83-3.75v-2h13.21v15.46Zm-38.87,0H558.84V453.1a3.1,3.1,0,0,0,1.23-1.37,7,7,0,0,0,.32-2.51V437.44h-0.11l-6.17,23.22H549.6L543,437.44h-0.11l-0.11,12.23a3.5,3.5,0,0,0,1.72,3.43v7.56H530.33V453.1a3.38,3.38,0,0,0,1.45-3.13V428.79q0-2.39-1.45-3.18v-7.56h18l4.72,17.45h0.11l4.89-17.45h17.66v7.56a2.76,2.76,0,0,0-1.18,1,4.8,4.8,0,0,0-.43,2.16V449a8.81,8.81,0,0,0,.27,2.63,3.14,3.14,0,0,0,1.34,1.44v7.56ZM511.11,449V429.79q0-3.33-2.74-3.38t-2.79,3.38V449q0,3.28,2.79,3.28T511.11,449Zm14.39-.5q0,6.71-4,9.87t-13.13,3.16q-8.8,0-13-3.11t-4.22-9.92V430.18q0-6.91,4.13-10t13-3.06a31.94,31.94,0,0,1,9.69,1.22,10.07,10.07,0,0,1,5.58,4.1,14.1,14.1,0,0,1,1.85,7.71v18.34Zm-36.94,12.13H472.07v-5.22a16.28,16.28,0,0,0-.64-4.62,18.78,18.78,0,0,0-1.56-3.83,21.89,21.89,0,0,0-1.72-2.68q-0.8-1-1.72-2.19h-0.11v6.41q0,3.93,1.56,4.57v7.56h-17.5V453.1a3.6,3.6,0,0,0,1.23-1,7,7,0,0,0,.32-2.56v-20q0-3-1.56-4v-7.56h17.5v7.56a2.47,2.47,0,0,0-1.23,1.32,17.36,17.36,0,0,0-.32,3.26v5q1.61-2.24,3.65-5.34a10.86,10.86,0,0,0,2.09-5.49v-6.31H487.7v7.56a9.63,9.63,0,0,0-1.61.72,22.65,22.65,0,0,0-1.61,2.11l-5.91,8.8,6.71,12.33,0.83,1.29a7.52,7.52,0,0,0,.78,1.07,4.07,4.07,0,0,0,.51.45q0.24,0.17,1.15.72v7.56Zm-60.29,0H410.6v-7.51a3.8,3.8,0,0,0,1.61-3.38V429.24q0-2.83-1.61-3.58h-2.31q-1.5.85-1.5,3.58v19.34a10.73,10.73,0,0,0,.3,3.08,3.11,3.11,0,0,0,1.21,1.49v7.51H390.84v-7.51a3.56,3.56,0,0,0,1.61-3.13V428.64a3.14,3.14,0,0,0-1.61-3v-7.61h37.42v7.61A2.43,2.43,0,0,0,427,427a8.81,8.81,0,0,0-.3,2.71v18.49a14.78,14.78,0,0,0,.27,3.33,2.61,2.61,0,0,0,1.29,1.64v7.51ZM372.64,449V429.79q0-3.33-2.74-3.38t-2.79,3.38V449q0,3.28,2.79,3.28T372.64,449Zm14.39-.5q0,6.71-4,9.87t-13.13,3.16q-8.8,0-13-3.11t-4.21-9.92V430.18q0-6.91,4.13-10t13-3.06a32,32,0,0,1,9.69,1.22,10.07,10.07,0,0,1,5.58,4.1,14.1,14.1,0,0,1,1.85,7.71v18.34Zm-53.1.5V429.79q0-3.33-2.74-3.38t-2.79,3.38V449q0,3.28,2.79,3.28T333.92,449Zm14.39-.5q0,6.71-4,9.87t-13.13,3.16q-8.81,0-13-3.11T314,448.53V430.18q0-6.91,4.13-10t13-3.06a31.94,31.94,0,0,1,9.69,1.22,10.07,10.07,0,0,1,5.58,4.1,14.1,14.1,0,0,1,1.85,7.71v18.34Zm-36.94,12.13H294.89v-5.22a16.29,16.29,0,0,0-.64-4.62,18.84,18.84,0,0,0-1.56-3.83A21.93,21.93,0,0,0,291,444.3q-0.81-1-1.72-2.19h-0.11v6.41q0,3.93,1.56,4.57v7.56H273.2V453.1a3.61,3.61,0,0,0,1.23-1,7,7,0,0,0,.32-2.56v-20q0-3-1.56-4v-7.56h17.5v7.56a2.47,2.47,0,0,0-1.23,1.32,17.37,17.37,0,0,0-.32,3.26v5q1.61-2.24,3.65-5.34a10.86,10.86,0,0,0,2.09-5.49v-6.31h15.62v7.56a9.66,9.66,0,0,0-1.61.72,22.64,22.64,0,0,0-1.61,2.11l-5.91,8.8,6.71,12.33,0.83,1.29a7.47,7.47,0,0,0,.78,1.07,4,4,0,0,0,.51.45q0.24,0.17,1.15.72v7.56Zm-55.57-26.2v-3q0-4.47-4.35-4.47h-1v12.43H252a3.87,3.87,0,0,0,2.93-.94Q255.81,437.49,255.8,434.46Zm14.34,1.74q0,12.23-14.17,12.23h-5.53a18.19,18.19,0,0,0,.16,3.11,3,3,0,0,0,1.4,1.57v7.56h-17.5V453.1q1.45-.85,1.56-3.43V429.49q0-3-1.56-3.88v-7.56h20.24a24.71,24.71,0,0,1,9.34,1.39,8.64,8.64,0,0,1,4.67,4.42,20.68,20.68,0,0,1,1.4,8.45v3.88Zm-56.21,5-2.42-12.63-0.11,0-2.2,12.68h4.73Zm17.93,19.44H213.71V453.1a2.22,2.22,0,0,0,1.56-2.24,5.71,5.71,0,0,0-.11-1.39h-6.93a9.53,9.53,0,0,1-.27,1.39,2.26,2.26,0,0,0,2,2.24v7.56H194.11V453.1q1.4-1,2.09-4.87l6.07-30.18h20.46l6,27.64a56.35,56.35,0,0,0,1.45,5.69,3.13,3.13,0,0,0,1.72,1.72v7.56Zm-38.71,0H176.66v-5.22a16.29,16.29,0,0,0-.64-4.62,18.76,18.76,0,0,0-1.56-3.83,21.76,21.76,0,0,0-1.72-2.68q-0.8-1-1.72-2.19h-0.11v6.41q0,3.93,1.56,4.57v7.56H155V453.1a3.6,3.6,0,0,0,1.23-1,7,7,0,0,0,.32-2.56v-20q0-3-1.56-4v-7.56h17.5v7.56a2.47,2.47,0,0,0-1.24,1.32,17.3,17.3,0,0,0-.32,3.26v5q1.61-2.24,3.65-5.34a10.85,10.85,0,0,0,2.09-5.49v-6.31h15.62v7.56a9.66,9.66,0,0,0-1.61.72,22.72,22.72,0,0,0-1.61,2.11l-5.91,8.8,6.71,12.33,0.83,1.29a7.48,7.48,0,0,0,.78,1.07,4.07,4.07,0,0,0,.51.45q0.24,0.17,1.15.72v7.56Zm-57-11.63V429.79q0-3.33-2.74-3.38t-2.79,3.38V449q0,3.28,2.79,3.28T136.18,449Zm14.39-.5q0,6.71-4,9.87t-13.13,3.16q-8.81,0-13-3.11t-4.22-9.92V430.18q0-6.91,4.13-10t13-3.06a32,32,0,0,1,9.69,1.22,10.07,10.07,0,0,1,5.58,4.1,14.1,14.1,0,0,1,1.85,7.71v18.34Zm-53.21-2.24q-0.11-3.78-4.83-3.78H91.4v9.3H93Q97.36,451.81,97.36,446.29Zm-0.21-16.41q-0.27-3-4.62-3H91.4v7.71h1.88Q97.42,434.56,97.15,429.89Zm15,18.54a13.57,13.57,0,0,1-1.72,6.61,10,10,0,0,1-4.83,4.13,21.49,21.49,0,0,1-8.05,1.49H75.24V453.1q1.77-.7,1.77-3.33V430a11.43,11.43,0,0,0-.29-3.33,2,2,0,0,0-1.48-1v-7.56h21q8.05,0,11.62,2.49t3.57,8.55q0,7.46-7.25,9.25v0.1a8.59,8.59,0,0,1,5.69,2.83Q112.13,443.76,112.18,448.43Z" transform="translate(98.07 -369.94)"/><polygon class="cls-1" points="272.29 30.19 272.29 43.97 276.85 43.97 282.68 30.19 272.29 30.19"/><polygon class="cls-5" points="272.29 30.19 272.29 43.97 276.85 43.97 282.68 30.19 272.29 30.19"/><polygon class="cls-1" points="269.44 28.5 269.44 42.28 274 42.28 279.95 28.5 269.44 28.5"/><polygon class="cls-5" points="269.44 28.5 269.44 42.28 274 42.28 279.95 28.5 269.44 28.5"/></svg>
